<?xml version="1.0" encoding="utf-8"?>
<!-- Generator: Adobe Illustrator 15.0.0, SVG Export Plug-In . SVG Version: 6.00 Build 0)  -->
<!DOCTYPE svg PUBLIC "-//W3C//DTD SVG 1.1//EN" "http://www.w3.org/Graphics/SVG/1.1/DTD/svg11.dtd">
<svg version="1.1" id="Layer_0" xmlns="http://www.w3.org/2000/svg" xmlns:xlink="http://www.w3.org/1999/xlink" x="0px" y="0px"
	 width="144px" height="144px" viewBox="0 0 144 144" enable-background="new 0 0 144 144" xml:space="preserve">
<g id="Layer_1">
	<circle fill="#3FFFCB" cx="71.246" cy="7.99" r="1.99"/>
	<circle fill="#3FFFCB" cx="96.728" cy="13.484" r="1.99"/>
	<circle fill="#3FFFCB" cx="117.802" cy="28.877" r="1.99"/>
	<circle fill="#3FFFCB" cx="130.828" cy="51.546" r="1.99"/>
	<circle fill="#3FFFCB" cx="133.55" cy="77.593" r="1.989"/>
	<circle fill="#3FFFCB" cx="125.5" cy="102.498" r="1.989"/>
	<circle fill="#3FFFCB" cx="108.069" cy="121.972" r="1.99"/>
	<circle fill="#3FFFCB" cx="84.271" cy="132.624" r="1.989"/>
	<circle fill="#3FFFCB" cx="58.221" cy="132.624" r="1.989"/>
	<circle fill="#3FFFCB" cx="34.422" cy="121.972" r="1.99"/>
	<circle fill="#3FFFCB" cx="16.992" cy="102.509" r="1.99"/>
	<circle fill="#3FFFCB" cx="8.942" cy="77.603" r="1.99"/>
	<circle fill="#3FFFCB" cx="11.666" cy="51.557" r="1.99"/>
	<circle fill="#3FFFCB" cx="24.69" cy="28.877" r="1.99"/>
	<circle fill="#3FFFCB" cx="45.765" cy="13.484" r="1.99"/>
	<circle fill="#FF0000" cx="38.536" cy="26.618" r="1.99"/>
	<circle fill="#FF0000" cx="59.486" cy="17.797" r="1.99"/>
	<circle fill="#FF0000" cx="87.872" cy="18.817" r="1.99"/>
	<circle fill="#FF0000" cx="96.658" cy="32.065" r="1.99"/>
	<circle fill="#FF0000" cx="35.494" cy="36.823" r="1.99"/>
	<circle fill="#FF0000" cx="20.626" cy="55.846" r="1.99"/>
	<circle fill="#FF0000" cx="58.472" cy="52.788" r="1.99"/>
	<circle fill="#FF0000" cx="112.204" cy="44.635" r="1.99"/>
	<circle fill="#FF0000" cx="103.755" cy="59.243" r="1.99"/>
	<circle fill="#FF0000" cx="120.989" cy="63.321" r="1.99"/>
	<circle fill="#FF0000" cx="116.258" cy="74.19" r="1.99"/>
	<circle fill="#FF0000" cx="120.312" cy="90.158" r="1.99"/>
	<circle fill="#FF0000" cx="116.935" cy="103.066" r="1.99"/>
	<circle fill="#FF0000" cx="95.646" cy="117.336" r="1.99"/>
	<circle fill="#FF0000" cx="78.747" cy="111.561" r="1.99"/>
	<circle fill="#FF0000" cx="47.66" cy="118.016" r="1.99"/>
	<circle fill="#FF0000" cx="31.44" cy="100.689" r="1.99"/>
	<circle fill="#FF0000" cx="32.454" cy="73.171" r="1.99"/>
	<circle fill="#0000FF" cx="71.652" cy="37.84" r="1.99"/>
	<circle fill="#0000FF" cx="48.674" cy="37.84" r="1.99"/>
	<circle fill="#0000FF" cx="37.86" cy="57.715" r="1.99"/>
	<circle fill="#0000FF" cx="48.336" cy="77.814" r="1.989"/>
	<circle fill="#0000FF" cx="71.148" cy="77.814" r="1.989"/>
	<circle fill="#0000FF" cx="94.125" cy="77.814" r="1.989"/>
	<circle fill="#0000FF" cx="82.467" cy="57.715" r="1.99"/>
	<circle fill="#0000FF" cx="60.501" cy="96.727" r="1.99"/>
	<circle fill="#0000FF" cx="86.183" cy="96.727" r="1.99"/>
	<circle fill="#0000FF" cx="104.432" cy="96.727" r="1.99"/>
	<circle fill="#0000FF" cx="94.125" cy="77.814" r="1.989"/>
</g>
<g id="Layer_2">
	<circle fill="none" cx="71.462" cy="71.148" r="64.663"/>
</g>
</svg>
